<?xml version="1.0" encoding="UTF-8" standalone="no"?>
<svg
   xmlns:dc="http://purl.org/dc/elements/1.1/"
   xmlns:cc="http://creativecommons.org/ns#"
   xmlns:rdf="http://www.w3.org/1999/02/22-rdf-syntax-ns#"
   xmlns:svg="http://www.w3.org/2000/svg"
   xmlns="http://www.w3.org/2000/svg"
   xmlns:sodipodi="http://sodipodi.sourceforge.net/DTD/sodipodi-0.dtd"
   xmlns:inkscape="http://www.inkscape.org/namespaces/inkscape"
   enable-background="new 0 0 32 32"
   height="32px"
   id="Слой_1"
   version="1.1"
   viewBox="0 0 32 32"
   width="32px"
   xml:space="preserve"
   inkscape:version="0.91 r13725"
   sodipodi:docname="association.svg"><metadata
     id="metadata20"><rdf:RDF><cc:Work
         rdf:about=""><dc:format>image/svg+xml</dc:format><dc:type
           rdf:resource="http://purl.org/dc/dcmitype/StillImage" /><dc:title></dc:title></cc:Work></rdf:RDF></metadata><defs
     id="defs18" /><sodipodi:namedview
     pagecolor="#ffffff"
     bordercolor="#666666"
     borderopacity="1"
     objecttolerance="10"
     gridtolerance="10"
     guidetolerance="10"
     inkscape:pageopacity="0"
     inkscape:pageshadow="2"
     inkscape:window-width="1440"
     inkscape:window-height="837"
     id="namedview16"
     showgrid="false"
     inkscape:zoom="16"
     inkscape:cx="23.613974"
     inkscape:cy="14.337066"
     inkscape:window-x="-8"
     inkscape:window-y="-8"
     inkscape:window-maximized="1"
     inkscape:current-layer="Слой_1" /><path
     style="fill:#ffffff;fill-opacity:1"
     d="m 4.5,14.999 -3.5,0 c -1.45000176,-0.02419 -1.16548414,2.332314 0.2331272,2.02 l 3.2981228,0 m 19.12049,-0.06544 c 3.713127,0.01304 4.93426,0.06544 4.93426,0.06544 -2.768452,2.815557 -5.576934,5.595246 -8.320256,8.43332 -0.773695,1.138423 1.099263,2.211202 1.760943,1.048784 3.263189,-3.315181 6.566342,-6.594628 9.804563,-9.932135 C 31.93951,16.403491 31.997885,16.206532 32,16.009 31.879846,15.155086 31.013323,14.710798 30.504221,14.080071 27.54854,11.113895 24.629655,8.1074327 21.650979,5.1664316 20.507327,4.3913764 19.466113,6.2837999 20.612697,6.9448861 L 28.587,14.999 c 0,0 -1.252035,-0.05252 -4.979499,-0.06555 m -3.5625,0.03125 c -1.645598,-0.0058 -2.601296,-0.0099 -3.648963,-0.0099 l -0.0092,2.02 c 1.052321,0 2.048814,0.0042 3.702354,0.01 M 12.860505,14.999 c -3.4207504,0 -4.798005,0 -4.798005,0 l 0.03125,2.02 c 0,0 1.3513796,0 4.766755,0"
     id="Arrow_Forward"
     inkscape:connector-curvature="0"
     sodipodi:nodetypes="ccccccccccccccccccccccc" /><g
     id="g4" /><g
     id="g6" /><g
     id="g8" /><g
     id="g10" /><g
     id="g12" /><g
     id="g14" /></svg>